<svg xmlns="http://www.w3.org/2000/svg" width="114.832" height="75.558" viewBox="0 0 114.832 75.558">
  <g id="Project_Icon" data-name="Project Icon" transform="translate(-133 -75)">
    <path id="Path_13" data-name="Path 13" d="M7,0H95a7,7,0,0,1,7,7l.041,48.588a7,7,0,0,1-7,7h-88a7,7,0,0,1-7-7L0,7A7,7,0,0,1,7,0Z" transform="translate(135 77)" fill="none" stroke="#f0f0f0" stroke-width="4"/>
    <path id="Path_12" data-name="Path 12" d="M2447.824,84.833s.02,51.055,0,51.055c.053,4-2.222,13.947-14.733,13.664-.136-.139-88.057,0-88.057,0" transform="translate(-2202 -1)" fill="none" stroke="#f0f0f0" stroke-width="4"/>
    <rect id="Rectangle_13" data-name="Rectangle 13" width="25" height="25" rx="6" transform="translate(149 96)" fill="none" stroke="#f0f0f0" stroke-width="4"/>
    <line id="Line_2" data-name="Line 2" x2="40" transform="translate(182.5 100.5)" fill="none" stroke="#f0f0f0" stroke-width="4"/>
    <line id="Line_3" data-name="Line 3" x2="20" transform="translate(182.5 108.5)" fill="none" stroke="#f0f0f0" stroke-width="4"/>
  </g>
</svg>
